<svg id="Ebene_1" data-name="Ebene 1" xmlns="http://www.w3.org/2000/svg" viewBox="0 0 917.45 669.12" style="" class=""><defs><style>.cls-1,.cls-3{fill:#e6e6e6;}.cls-11,.cls-2,.cls-5{fill:none;}.cls-2,.cls-3{stroke:#ccc;}.cls-11,.cls-13,.cls-2,.cls-3,.cls-4,.cls-5{stroke-miterlimit:10;}.cls-4{fill:#ededed;stroke:#999;stroke-linecap:round;}.cls-11,.cls-13,.cls-5{stroke:#182118;}.cls-5{stroke-width:10px;}.cls-6,.cls-8{font-size:158.97px;font-family:ProximaNovaA-Bold, Proxima Nova Alt;}.cls-6{fill:#3cc;}.cls-14,.cls-6,.cls-8{font-weight:700;}.cls-7{letter-spacing:-0.08em;}.cls-10,.cls-12,.cls-15,.cls-16,.cls-17,.cls-18,.cls-8{fill:#182118;}.cls-9{letter-spacing:-0.05em;}.cls-10{font-size:54.43px;font-family:Quicksand-Light, Quicksand;}.cls-14{font-size:33.83px;font-family:Montserrat-Bold, Montserrat;}.cls-15{letter-spacing:-0.06em;}.cls-16{letter-spacing:-0.01em;}.cls-17{letter-spacing:0em;}.cls-18{letter-spacing:0em;}</style></defs><title>Vermittlungs Grafik Kasa</title><path class="cls-1 cumUnhqx_0" d="M1195.37,493V688.37H1287V493Zm29,155.79H1213.7V621.84h10.69Zm0-42.95H1213.7V578.9h10.69Zm0-42.95H1213.7V535.95h10.69Zm42,85.9h-10.69V621.84h10.69Zm0-42.95h-10.69V578.9h10.69Zm0-42.95h-10.69V535.95h10.69Z" transform="translate(-382.79 -35.88)"></path><path class="cls-1 cumUnhqx_1" d="M772,195c-2,1-3,1-5,2,1,0,3,1,4,1-2,0-3,1-5,1,1,0,3,1,4,1-2,1-3,1-5,2,1,0,3,1,4,1-2,0-3,1-5,1,1,0,3,1,4,1-2,0-3,1-5,1,1,0,3,1,4,1-2,0-4,1-6,1,1,0,3,1,4,1-2,0-3,1-5,1,1,1,3,1,4,2h-5c1,1,2,1,3,2-2,0-3-1-5-1,1,1,3,2,4,3-2,0-4-1-6-1,1,1,3,1,4,2h-5c1,1,2,1,3,2-2,0-3-1-5-1l3,3c-2,0-3-1-5-1,1,1,2,1,3,2-2,0-3-1-5-1l3,3c-2-1-3-1-5-2l3,3c-2-1-3-1-5-2l3,3c-2-1-3-1-5-2,1,1,1,3,2,4-1-1-3-2-4-3,1,1,1,2,2,3-2-1-3-2-5-3,1,1,2,3,3,4-2-1-3-2-5-3,1,1,1,3,2,4l-4-4c1,1,1,3,2,4-2-1-3-2-5-3,1,1,1,3,2,4l-4-4c0,1,1,3,1,4-1-1-2-3-3-4,0,1,1,3,1,4-1-2-3-3-4-5,0,2,1,3,1,5-1-2-2-3-3-5v4c-1-2-1-3-2-5v5c-1-2-2-3-3-5v4c-1-2-1-3-2-5,0,1-1,3-1,4,0-2-1-3-1-5,0,1-1,3-1,4-1-2-1-4-2-6,0,1-1,3-1,4,0-2-1-3-1-5,0,1-1,3-1,4,0-2-1-3-1-5,0,1-1,2-1,3,0-2-1-3-1-5,0,1-1,2-1,3v-5l-3,3c0-2,1-3,1-5-1,1-1,2-2,3v-5c-1,1-1,2-2,3,0-2,1-3,1-5-1,1-2,1-3,2,1-2,1-3,2-5l-3,3c0-2,1-3,1-5-1,1-2,1-3,2,1-1,1-3,2-4-1,1-2,1-3,2,1-2,2-3,3-5-1,1-3,1-4,2,1-1,2-3,3-4-1,0-3,1-4,1,1-1,2-3,3-4-1,1-2,1-3,2,1-2,2-3,3-5-1,1-3,1-4,2l4-4c-1,0-3,1-4,1l4-4c-1,0-3,1-4,1,1-1,3-2,4-3h-4c1-1,3-2,4-3-1,0-3,1-4,1,1-1,3-2,4-3h-4c2-1,3-2,5-3h-4c1-1,3-1,4-2h-4c2-1,3-2,5-3h-4c2-1,3-1,5-2-1,0-3-1-4-1,2,0,3-1,5-1-1,0-3-1-4-1,2-1,3-1,5-2-1,0-3-1-4-1,2,0,3-1,5-1-1,0-3-1-4-1,2,0,3-1,5-1-1,0-3-1-4-1,2,0,3-1,5-1-1,0-3-1-4-1,2,0,4-1,6-1-1-1-3-1-4-2h5c-1-1-3-1-4-2,2,0,4,1,6,1-1-1-3-2-4-3,2,0,3,1,5,1-1-1-2-1-3-2h5c-1-1-2-1-3-2,2,0,3,1,5,1l-3-3c2,0,3,1,5,1-1-1-2-1-3-2,2,0,3,1,5,1l-3-3c2,1,3,1,5,2l-3-3c2,1,3,1,5,2l-3-3c2,1,3,1,5,2l-3-3c2,1,3,1,5,2-1-1-1-2-2-3,1,1,3,2,4,3-1-1-1-3-2-4,2,1,3,2,5,3-1-1-1-3-2-4l4,4c-1-1-1-3-2-4,1,1,3,2,4,3,0-1-1-3-1-4l4,4c0-1-1-3-1-4,1,1,2,3,3,4,0-1-1-3-1-4,1,2,3,3,4,5,0-2-1-3-1-5,1,2,2,3,3,5v-4c1,2,1,3,2,5v-5c1,2,2,3,3,5v-4c1,2,1,3,2,5v-4c1,2,1,3,2,5,0-1,1-3,1-4,0,2,1,4,1,6,0-1,1-3,1-4,0,2,1,3,1,5,1-1,1-3,2-4,0,2,1,4,1,6,0-1,1-3,1-4v5c1-1,1-2,2-3v5c1-1,1-2,2-3v5c1-1,1-2,2-3v5c1-1,1-2,2-3,0,2-1,3-1,5,1-1,2-1,3-2-1,2-1,3-2,5l3-3c-1,2-1,3-2,5,1-1,2-1,3-2-1,1-1,3-2,4,1-1,3-1,4-2-1,2-2,3-3,5,1-1,3-1,4-2-1,1-2,3-3,4,1,0,2-1,3-1-1,1-1,3-2,4,1-1,2-1,3-2-1,2-2,3-3,5,1-1,3-1,4-2l-4,4c1,0,3-1,4-1l-4,4c1,0,3-1,4-1-1,1-3,2-4,3h4c-1,1-3,2-4,3,1,0,3-1,4-1-1,1-3,2-4,3h4c-2,1-3,2-5,3h4c-1,1-3,1-4,2h4c-2,1-3,2-5,3Z" transform="translate(-382.79 -35.88)"></path><path class="cls-2 cumUnhqx_2" d="M772,195c-2,1-3,1-5,2,1,0,3,1,4,1-2,0-3,1-5,1,1,0,3,1,4,1-2,1-3,1-5,2,1,0,3,1,4,1-2,0-3,1-5,1,1,0,3,1,4,1-2,0-3,1-5,1,1,0,3,1,4,1-2,0-4,1-6,1,1,0,3,1,4,1-2,0-3,1-5,1,1,1,3,1,4,2h-5c1,1,2,1,3,2-2,0-3-1-5-1,1,1,3,2,4,3-2,0-4-1-6-1,1,1,3,1,4,2h-5c1,1,2,1,3,2-2,0-3-1-5-1l3,3c-2,0-3-1-5-1,1,1,2,1,3,2-2,0-3-1-5-1l3,3c-2-1-3-1-5-2l3,3c-2-1-3-1-5-2l3,3c-2-1-3-1-5-2,1,1,1,3,2,4-1-1-3-2-4-3,1,1,1,2,2,3-2-1-3-2-5-3,1,1,2,3,3,4-2-1-3-2-5-3,1,1,1,3,2,4l-4-4c1,1,1,3,2,4-2-1-3-2-5-3,1,1,1,3,2,4l-4-4c0,1,1,3,1,4-1-1-2-3-3-4,0,1,1,3,1,4-1-2-3-3-4-5,0,2,1,3,1,5-1-2-2-3-3-5v4c-1-2-1-3-2-5v5c-1-2-2-3-3-5v4c-1-2-1-3-2-5,0,1-1,3-1,4,0-2-1-3-1-5,0,1-1,3-1,4-1-2-1-4-2-6,0,1-1,3-1,4,0-2-1-3-1-5,0,1-1,3-1,4,0-2-1-3-1-5,0,1-1,2-1,3,0-2-1-3-1-5,0,1-1,2-1,3v-5l-3,3c0-2,1-3,1-5-1,1-1,2-2,3v-5c-1,1-1,2-2,3,0-2,1-3,1-5-1,1-2,1-3,2,1-2,1-3,2-5l-3,3c0-2,1-3,1-5-1,1-2,1-3,2,1-1,1-3,2-4-1,1-2,1-3,2,1-2,2-3,3-5-1,1-3,1-4,2,1-1,2-3,3-4-1,0-3,1-4,1,1-1,2-3,3-4-1,1-2,1-3,2,1-2,2-3,3-5-1,1-3,1-4,2l4-4c-1,0-3,1-4,1l4-4c-1,0-3,1-4,1,1-1,3-2,4-3h-4c1-1,3-2,4-3-1,0-3,1-4,1,1-1,3-2,4-3h-4c2-1,3-2,5-3h-4c1-1,3-1,4-2h-4c2-1,3-2,5-3h-4c2-1,3-1,5-2-1,0-3-1-4-1,2,0,3-1,5-1-1,0-3-1-4-1,2-1,3-1,5-2-1,0-3-1-4-1,2,0,3-1,5-1-1,0-3-1-4-1,2,0,3-1,5-1-1,0-3-1-4-1,2,0,3-1,5-1-1,0-3-1-4-1,2,0,4-1,6-1-1-1-3-1-4-2h5c-1-1-3-1-4-2,2,0,4,1,6,1-1-1-3-2-4-3,2,0,3,1,5,1-1-1-2-1-3-2h5c-1-1-2-1-3-2,2,0,3,1,5,1l-3-3c2,0,3,1,5,1-1-1-2-1-3-2,2,0,3,1,5,1l-3-3c2,1,3,1,5,2l-3-3c2,1,3,1,5,2l-3-3c2,1,3,1,5,2l-3-3c2,1,3,1,5,2-1-1-1-2-2-3,1,1,3,2,4,3-1-1-1-3-2-4,2,1,3,2,5,3-1-1-1-3-2-4l4,4c-1-1-1-3-2-4,1,1,3,2,4,3,0-1-1-3-1-4l4,4c0-1-1-3-1-4,1,1,2,3,3,4,0-1-1-3-1-4,1,2,3,3,4,5,0-2-1-3-1-5,1,2,2,3,3,5v-4c1,2,1,3,2,5v-5c1,2,2,3,3,5v-4c1,2,1,3,2,5v-4c1,2,1,3,2,5,0-1,1-3,1-4,0,2,1,4,1,6,0-1,1-3,1-4,0,2,1,3,1,5,1-1,1-3,2-4,0,2,1,4,1,6,0-1,1-3,1-4v5c1-1,1-2,2-3v5c1-1,1-2,2-3v5c1-1,1-2,2-3v5c1-1,1-2,2-3,0,2-1,3-1,5,1-1,2-1,3-2-1,2-1,3-2,5l3-3c-1,2-1,3-2,5,1-1,2-1,3-2-1,1-1,3-2,4,1-1,3-1,4-2-1,2-2,3-3,5,1-1,3-1,4-2-1,1-2,3-3,4,1,0,2-1,3-1-1,1-1,3-2,4,1-1,2-1,3-2-1,2-2,3-3,5,1-1,3-1,4-2l-4,4c1,0,3-1,4-1l-4,4c1,0,3-1,4-1-1,1-3,2-4,3h4c-1,1-3,2-4,3,1,0,3-1,4-1-1,1-3,2-4,3h4c-2,1-3,2-5,3h4c-1,1-3,1-4,2h4c-2,1-3,2-5,3Z" transform="translate(-382.79 -35.88)"></path><path class="cls-3 cumUnhqx_3" transform="translate(-52.14 810.1) rotate(-71.29)" d="M728.15,192.47A26.97,17.92 0,1,1 782.09,192.47A26.97,17.92 0,1,1 728.15,192.47"></path><path class="cls-3 cumUnhqx_4" transform="translate(-407.02 200.44) rotate(-18.71)" d="M687.39,191.72A17.92,26.97 0,1,1 723.2299999999999,191.72A17.92,26.97 0,1,1 687.39,191.72"></path><path class="cls-3 cumUnhqx_5" d="M310.41,241.12L347.88,151.5L385.36,241.12L310.41,241.12Z"></path><path class="cls-4 cumUnhqx_6" d="M351.95,229.8L348.18,239.61L344.03,229.8L344.03,189.04L351.95,189.04L351.95,229.8Z"></path><path class="cls-3 cumUnhqx_7" d="M306.3,153.19A41.32,46.04 0,1,1 388.94,153.19A41.32,46.04 0,1,1 306.3,153.19"></path><path class="cls-3 cumUnhqx_8" d="M711.21,209c-1.59-1.54,18.22,19.94,38.25.74" transform="translate(-382.79 -35.88)"></path><path class="cls-1 cumUnhqx_9" d="M561,161c-2,1-3,1-5,2,1,0,3,1,4,1-2,1-3,1-5,2h4c-2,1-3,1-5,2,1,0,3,1,4,1-2,0-4,1-6,1,1,0,3,1,4,1-2,0-3,1-5,1,1,1,3,1,4,2-2,0-3,1-5,1,1,0,3,1,4,1-2,0-4,1-6,1,1,0,3,1,4,1-2,0-3,1-5,1,1,1,2,1,3,2h-5c1,1,3,1,4,2-2,0-4-1-6-1,1,1,3,2,4,3-2,0-4-1-6-1,1,1,3,2,4,3-2,0-4-1-6-1,1,1,3,1,4,2-2,0-4-1-6-1,1,1,3,2,4,3-2-1-4-1-6-2,1,1,2,3,3,4-2-1-3-1-5-2l3,3c-2-1-3-1-5-2l3,3c-2-1-3-1-5-2,1,1,1,2,2,3-2-1-3-1-5-2l3,3c-2-1-3-2-5-3,1,1,1,3,2,4-1-1-3-2-4-3,0,1,1,3,1,4l-4-4c1,1,1,3,2,4-1-1-3-2-4-3,0,1,1,3,1,4l-4-4c0,1,1,3,1,4l-4-4c0,1,1,3,1,4-1-1-2-3-3-4v4c-1-2-2-3-3-5,0,1,1,3,1,4-1-2-2-3-3-5v5c-1-2-2-3-3-5v4c-1-2-1-3-2-5,0,1-1,3-1,4-1-2-1-3-2-5v4c-1-2-1-4-2-6,0,1-1,3-1,4,0-2-1-3-1-5-1,1-1,2-2,3v-5c-1,1-1,3-2,4v-6c-1,1-1,3-2,4v-6c-1,1-2,3-3,4,0-2,1-4,1-6l-3,3c0-2,1-3,1-5l-3,3c1-2,1-3,2-5-1,1-2,1-3,2,0-2,1-3,1-5l-3,3c1-2,1-3,2-5-1,1-2,1-3,2,1-2,1-3,2-5-1,1-2,1-3,2,1-2,1-3,2-5-1,1-2,1-3,2,1-1,1-3,2-4-1,0-2,1-3,1,1-1,2-3,3-4-1,0-3,1-4,1,1-1,2-3,3-4-1,1-3,1-4,2,1-2,3-3,4-5-1,1-3,1-4,2l4-4c-1,0-3,1-4,1l4-4c-1,0-3,1-4,1l4-4c-1,0-3,1-4,1,1-1,3-2,4-3h-4c2-1,3-2,5-3h-4c1-1,3-2,4-3h-4c2-1,3-1,5-2-1,0-3-1-4-1,2-1,3-1,5-2h-4c2-1,3-1,5-2-1,0-3-1-4-1,2-1,3-1,5-2-1,0-3-1-4-1,2,0,3-1,5-1-1,0-3-1-4-1,2,0,4-1,6-1-1-1-3-1-4-2h5c-1-1-3-1-4-2h6c-1-1-3-1-4-2h5c-1-1-3-1-4-2h6c-1-1-3-2-4-3,2,0,4,1,6,1-1-1-3-2-4-3,2,0,3,1,5,1-1-1-2-1-3-2,2,0,3,1,5,1l-3-3c2,0,3,1,5,1l-3-3c2,1,3,1,5,2l-3-3c2,0,4,1,6,1l-3-3c2,1,3,1,5,2l-3-3c2,1,3,1,5,2l-3-3c2,1,3,1,5,2-1-1-1-2-2-3,2,1,3,2,5,3-1-1-1-3-2-4,1,1,3,2,4,3-1-1-1-3-2-4,2,1,3,3,5,4-1-1-1-3-2-4,1,1,3,2,4,3,0-1-1-3-1-4l4,4c0-1-1-3-1-4,1,1,2,3,3,4,0-1-1-3-1-4,1,2,3,3,4,5,0-1-1-3-1-4,1,1,2,3,3,4V98c1,2,2,3,3,5V99c1,1,1,3,2,4,0-1,1-3,1-4,1,2,1,3,2,5v-4c1,2,1,4,2,6,0-1,1-3,1-4,1,2,1,3,2,5,0-1,1-3,1-4,0,2,1,3,1,5,0-1,1-2,1-3,0,2,1,3,1,5,1-1,1-2,2-3v5c1-1,1-3,2-4v6c1-1,1-2,2-3v5c1-1,1-2,2-3v5c1-1,1-2,2-3,0,2-1,4-1,6l3-3c0,2-1,3-1,5,1-1,1-2,2-3,0,2-1,3-1,5,1-1,2-1,3-2-1,2-1,3-2,5,1-1,2-1,3-2-1,2-1,3-2,5,1-1,2-1,3-2-1,1-1,3-2,4,1,0,2-1,3-1-1,1-2,3-3,4,1,0,3-1,4-1-1,1-2,3-3,4,1,0,2-1,3-1-1,1-2,3-3,4,1,0,3-1,4-1-1,1-3,2-4,3h4c-1,1-3,2-4,3h4c-1,1-3,2-4,3h4c-2,1-3,2-5,3,1,0,3-1,4-1-1,1-3,2-4,3h4c-2,1-3,2-5,3h4c-1,1-3,2-4,3Z" transform="translate(-382.79 -35.88)"></path><path class="cls-2 cumUnhqx_10" d="M561,161c-2,1-3,1-5,2,1,0,3,1,4,1-2,1-3,1-5,2h4c-2,1-3,1-5,2,1,0,3,1,4,1-2,0-4,1-6,1,1,0,3,1,4,1-2,0-3,1-5,1,1,1,3,1,4,2-2,0-3,1-5,1,1,0,3,1,4,1-2,0-4,1-6,1,1,0,3,1,4,1-2,0-3,1-5,1,1,1,2,1,3,2h-5c1,1,3,1,4,2-2,0-4-1-6-1,1,1,3,2,4,3-2,0-4-1-6-1,1,1,3,2,4,3-2,0-4-1-6-1,1,1,3,1,4,2-2,0-4-1-6-1,1,1,3,2,4,3-2-1-4-1-6-2,1,1,2,3,3,4-2-1-3-1-5-2l3,3c-2-1-3-1-5-2l3,3c-2-1-3-1-5-2,1,1,1,2,2,3-2-1-3-1-5-2l3,3c-2-1-3-2-5-3,1,1,1,3,2,4-1-1-3-2-4-3,0,1,1,3,1,4l-4-4c1,1,1,3,2,4-1-1-3-2-4-3,0,1,1,3,1,4l-4-4c0,1,1,3,1,4l-4-4c0,1,1,3,1,4-1-1-2-3-3-4v4c-1-2-2-3-3-5,0,1,1,3,1,4-1-2-2-3-3-5v5c-1-2-2-3-3-5v4c-1-2-1-3-2-5,0,1-1,3-1,4-1-2-1-3-2-5v4c-1-2-1-4-2-6,0,1-1,3-1,4,0-2-1-3-1-5-1,1-1,2-2,3v-5c-1,1-1,3-2,4v-6c-1,1-1,3-2,4v-6c-1,1-2,3-3,4,0-2,1-4,1-6l-3,3c0-2,1-3,1-5l-3,3c1-2,1-3,2-5-1,1-2,1-3,2,0-2,1-3,1-5l-3,3c1-2,1-3,2-5-1,1-2,1-3,2,1-2,1-3,2-5-1,1-2,1-3,2,1-2,1-3,2-5-1,1-2,1-3,2,1-1,1-3,2-4-1,0-2,1-3,1,1-1,2-3,3-4-1,0-3,1-4,1,1-1,2-3,3-4-1,1-3,1-4,2,1-2,3-3,4-5-1,1-3,1-4,2l4-4c-1,0-3,1-4,1l4-4c-1,0-3,1-4,1l4-4c-1,0-3,1-4,1,1-1,3-2,4-3h-4c2-1,3-2,5-3h-4c1-1,3-2,4-3h-4c2-1,3-1,5-2-1,0-3-1-4-1,2-1,3-1,5-2h-4c2-1,3-1,5-2-1,0-3-1-4-1,2-1,3-1,5-2-1,0-3-1-4-1,2,0,3-1,5-1-1,0-3-1-4-1,2,0,4-1,6-1-1-1-3-1-4-2h5c-1-1-3-1-4-2h6c-1-1-3-1-4-2h5c-1-1-3-1-4-2h6c-1-1-3-2-4-3,2,0,4,1,6,1-1-1-3-2-4-3,2,0,3,1,5,1-1-1-2-1-3-2,2,0,3,1,5,1l-3-3c2,0,3,1,5,1l-3-3c2,1,3,1,5,2l-3-3c2,0,4,1,6,1l-3-3c2,1,3,1,5,2l-3-3c2,1,3,1,5,2l-3-3c2,1,3,1,5,2-1-1-1-2-2-3,2,1,3,2,5,3-1-1-1-3-2-4,1,1,3,2,4,3-1-1-1-3-2-4,2,1,3,3,5,4-1-1-1-3-2-4,1,1,3,2,4,3,0-1-1-3-1-4l4,4c0-1-1-3-1-4,1,1,2,3,3,4,0-1-1-3-1-4,1,2,3,3,4,5,0-1-1-3-1-4,1,1,2,3,3,4V98c1,2,2,3,3,5V99c1,1,1,3,2,4,0-1,1-3,1-4,1,2,1,3,2,5v-4c1,2,1,4,2,6,0-1,1-3,1-4,1,2,1,3,2,5,0-1,1-3,1-4,0,2,1,3,1,5,0-1,1-2,1-3,0,2,1,3,1,5,1-1,1-2,2-3v5c1-1,1-3,2-4v6c1-1,1-2,2-3v5c1-1,1-2,2-3v5c1-1,1-2,2-3,0,2-1,4-1,6l3-3c0,2-1,3-1,5,1-1,1-2,2-3,0,2-1,3-1,5,1-1,2-1,3-2-1,2-1,3-2,5,1-1,2-1,3-2-1,2-1,3-2,5,1-1,2-1,3-2-1,1-1,3-2,4,1,0,2-1,3-1-1,1-2,3-3,4,1,0,3-1,4-1-1,1-2,3-3,4,1,0,2-1,3-1-1,1-2,3-3,4,1,0,3-1,4-1-1,1-3,2-4,3h4c-1,1-3,2-4,3h4c-1,1-3,2-4,3h4c-2,1-3,2-5,3,1,0,3-1,4-1-1,1-3,2-4,3h4c-2,1-3,2-5,3h4c-1,1-3,2-4,3Z" transform="translate(-382.79 -35.88)"></path><path class="cls-3 cumUnhqx_11" transform="translate(-163.94 585.57) rotate(-71.29)" d="M513.92,158.15A28.76,19.11 0,1,1 571.4399999999999,158.15A28.76,19.11 0,1,1 513.92,158.15"></path><path class="cls-3 cumUnhqx_12" transform="matrix(0.95, -0.32, 0.32, 0.95, -407.39, 129.43)" d="M470.46,157.34A19.11,28.76 0,1,1 508.68,157.34A19.11,28.76 0,1,1 470.46,157.34"></path><path class="cls-3 cumUnhqx_13" d="M93.87,212.4L133.83,116.84L173.78,212.4L93.87,212.4Z"></path><path class="cls-4 cumUnhqx_14" d="M138.17,200.33L134.15,210.79L129.72,200.33L129.72,156.87L138.17,156.87L138.17,200.33Z"></path><path class="cls-3 cumUnhqx_15" d="M89.47999999999999,118.65A44.06,49.09 0,1,1 177.6,118.65A44.06,49.09 0,1,1 89.47999999999999,118.65"></path><path class="cls-3 cumUnhqx_16" d="M495.87,175.76c-1.69-1.65,19.43,21.26,40.78.79" transform="translate(-382.79 -35.88)"></path><path class="cls-1 cumUnhqx_17" d="M887,225c-2,1-3,1-5,2h5c-2,1-3,1-5,2,1,0,3,1,4,1-2,0-4,1-6,1,2,0,3,1,5,1-2,1-4,1-6,2,1,0,3,1,4,1-2,0-3,1-5,1,1,0,3,1,4,1-2,0-3,1-5,1,1,0,3,1,4,1-2,0-4,1-6,1,1,1,3,1,4,2h-5c1,1,3,1,4,2h-6c1,1,3,1,4,2-2,0-4-1-6-1,1,1,3,2,4,3-2,0-3-1-5-1l3,3c-2,0-3-1-5-1,1,1,2,1,3,2-2,0-3-1-5-1l3,3c-2-1-3-1-5-2l3,3c-2-1-3-1-5-2,1,1,2,3,3,4-2-1-3-1-5-2,1,1,1,2,2,3-2-1-3-1-5-2l3,3c-2-1-3-2-5-3,1,1,2,3,3,4-2-1-3-2-5-3,1,1,1,3,2,4-1-1-3-2-4-3,1,1,1,3,2,4-2-1-3-3-5-4,1,1,1,3,2,4l-4-4c0,1,1,3,1,4l-4-4c1,1,1,3,2,4l-4-4c0,1,1,3,1,4l-4-4c0,1,1,3,1,4-1-1-2-3-3-4v4c-1-2-1-3-2-5v4c-1-2-2-3-3-5v4c-1-2-1-3-2-5,0,1-1,3-1,4-1-2-1-3-2-5v4c-1-2-1-3-2-5,0,1-1,3-1,4,0-2-1-3-1-5,0,1-1,2-1,3,0-2-1-3-1-5-1,1-1,3-2,4v-6c-1,1-1,3-2,4v-6c-1,1-1,3-2,4v-6c-1,1-1,2-2,3,0-2,1-3,1-5l-3,3c0-2,1-3,1-5l-3,3c1-2,1-4,2-6l-3,3c1-2,1-3,2-5-1,1-2,1-3,2,1-1,1-3,2-4-1,1-3,1-4,2,1-2,2-3,3-5-1,1-3,1-4,2,1-2,2-3,3-5-1,1-2,1-3,2,1-1,1-3,2-4-1,0-2,1-3,1,1-1,2-3,3-4-1,0-3,1-4,1l4-4c-1,1-3,1-4,2l4-4c-1,0-3,1-4,1l4-4c-1,0-3,1-4,1l4-4c-1,0-3,1-4,1,1-1,3-2,4-3h-4c2-1,3-2,5-3h-4c1-1,3-1,4-2h-4c2-1,3-2,5-3h-4c2-1,3-1,5-2-1,0-3-1-4-1,2,0,3-1,5-1-1,0-3-1-4-1,2-1,3-1,5-2-1,0-3-1-4-1,2,0,3-1,5-1-1,0-3-1-4-1,2,0,3-1,5-1-1-1-3-1-4-2h6c-1-1-3-1-4-2h5c-1-1-3-1-4-2h6c-1-1-3-1-4-2h5c-1-1-2-1-3-2h5c-1-1-3-1-4-2,2,0,4,1,6,1-1-1-3-2-4-3,2,0,4,1,6,1-1-1-3-2-4-3,2,1,4,1,6,2-1-1-3-2-4-3,2,0,4,1,6,1-1-1-3-2-4-3,2,1,4,1,6,2l-3-3c2,1,3,1,5,2l-3-3c2,1,3,1,5,2l-3-3c2,1,3,1,5,2-1-1-1-2-2-3,1,1,3,2,4,3-1-1-1-3-2-4,2,1,3,2,5,3-1-1-1-3-2-4l4,4c-1-1-1-3-2-4,2,1,3,2,5,3-1-1-1-3-2-4l4,4c0-1-1-3-1-4,1,1,2,3,3,4v-4c1,2,2,3,3,5,0-2-1-3-1-5,1,2,2,3,3,5v-4c1,2,2,3,3,5v-4c1,1,1,3,2,4,0-1,1-3,1-4,1,2,1,3,2,5v-4c1,2,1,3,2,5,0-1,1-2,1-3,0,2,1,3,1,5,0-1,1-3,1-4,0,2,1,3,1,5,1-1,1-3,2-4v6c1-1,1-3,2-4v6c1-1,1-3,2-4v5c1-1,1-2,2-3v5c1-1,1-2,2-3v6c1-1,1-2,2-3,0,2-1,3-1,5l3-3c0,2-1,3-1,5l2-2c0,2-1,3-1,5l3-3c-1,2-1,3-2,5,1-1,2-1,3-2-1,2-1,3-2,5,1-1,2-1,3-2-1,1-2,3-3,4,1,0,3-1,4-1-1,1-2,3-3,4,1-1,2-1,3-2-1,2-2,3-3,5,1-1,3-1,4-2-1,1-2,3-3,4,1,0,2-1,3-1-1,1-2,3-3,4,1,0,3-1,4-1l-4,4c1,0,3-1,4-1-2,1-3,2-5,3h4c-1,1-3,2-4,3h4c-1,1-3,1-4,2h4c-2,1-3,2-5,3h4c-2,1-3,1-5,2,1,0,3,1,4,1Z" transform="translate(-382.79 -35.88)"></path><path class="cls-2 cumUnhqx_18" d="M887,225c-2,1-3,1-5,2h5c-2,1-3,1-5,2,1,0,3,1,4,1-2,0-4,1-6,1,2,0,3,1,5,1-2,1-4,1-6,2,1,0,3,1,4,1-2,0-3,1-5,1,1,0,3,1,4,1-2,0-3,1-5,1,1,0,3,1,4,1-2,0-4,1-6,1,1,1,3,1,4,2h-5c1,1,3,1,4,2h-6c1,1,3,1,4,2-2,0-4-1-6-1,1,1,3,2,4,3-2,0-3-1-5-1l3,3c-2,0-3-1-5-1,1,1,2,1,3,2-2,0-3-1-5-1l3,3c-2-1-3-1-5-2l3,3c-2-1-3-1-5-2,1,1,2,3,3,4-2-1-3-1-5-2,1,1,1,2,2,3-2-1-3-1-5-2l3,3c-2-1-3-2-5-3,1,1,2,3,3,4-2-1-3-2-5-3,1,1,1,3,2,4-1-1-3-2-4-3,1,1,1,3,2,4-2-1-3-3-5-4,1,1,1,3,2,4l-4-4c0,1,1,3,1,4l-4-4c1,1,1,3,2,4l-4-4c0,1,1,3,1,4l-4-4c0,1,1,3,1,4-1-1-2-3-3-4v4c-1-2-1-3-2-5v4c-1-2-2-3-3-5v4c-1-2-1-3-2-5,0,1-1,3-1,4-1-2-1-3-2-5v4c-1-2-1-3-2-5,0,1-1,3-1,4,0-2-1-3-1-5,0,1-1,2-1,3,0-2-1-3-1-5-1,1-1,3-2,4v-6c-1,1-1,3-2,4v-6c-1,1-1,3-2,4v-6c-1,1-1,2-2,3,0-2,1-3,1-5l-3,3c0-2,1-3,1-5l-3,3c1-2,1-4,2-6l-3,3c1-2,1-3,2-5-1,1-2,1-3,2,1-1,1-3,2-4-1,1-3,1-4,2,1-2,2-3,3-5-1,1-3,1-4,2,1-2,2-3,3-5-1,1-2,1-3,2,1-1,1-3,2-4-1,0-2,1-3,1,1-1,2-3,3-4-1,0-3,1-4,1l4-4c-1,1-3,1-4,2l4-4c-1,0-3,1-4,1l4-4c-1,0-3,1-4,1l4-4c-1,0-3,1-4,1,1-1,3-2,4-3h-4c2-1,3-2,5-3h-4c1-1,3-1,4-2h-4c2-1,3-2,5-3h-4c2-1,3-1,5-2-1,0-3-1-4-1,2,0,3-1,5-1-1,0-3-1-4-1,2-1,3-1,5-2-1,0-3-1-4-1,2,0,3-1,5-1-1,0-3-1-4-1,2,0,3-1,5-1-1-1-3-1-4-2h6c-1-1-3-1-4-2h5c-1-1-3-1-4-2h6c-1-1-3-1-4-2h5c-1-1-2-1-3-2h5c-1-1-3-1-4-2,2,0,4,1,6,1-1-1-3-2-4-3,2,0,4,1,6,1-1-1-3-2-4-3,2,1,4,1,6,2-1-1-3-2-4-3,2,0,4,1,6,1-1-1-3-2-4-3,2,1,4,1,6,2l-3-3c2,1,3,1,5,2l-3-3c2,1,3,1,5,2l-3-3c2,1,3,1,5,2-1-1-1-2-2-3,1,1,3,2,4,3-1-1-1-3-2-4,2,1,3,2,5,3-1-1-1-3-2-4l4,4c-1-1-1-3-2-4,2,1,3,2,5,3-1-1-1-3-2-4l4,4c0-1-1-3-1-4,1,1,2,3,3,4v-4c1,2,2,3,3,5,0-2-1-3-1-5,1,2,2,3,3,5v-4c1,2,2,3,3,5v-4c1,1,1,3,2,4,0-1,1-3,1-4,1,2,1,3,2,5v-4c1,2,1,3,2,5,0-1,1-2,1-3,0,2,1,3,1,5,0-1,1-3,1-4,0,2,1,3,1,5,1-1,1-3,2-4v6c1-1,1-3,2-4v6c1-1,1-3,2-4v5c1-1,1-2,2-3v5c1-1,1-2,2-3v6c1-1,1-2,2-3,0,2-1,3-1,5l3-3c0,2-1,3-1,5l2-2c0,2-1,3-1,5l3-3c-1,2-1,3-2,5,1-1,2-1,3-2-1,2-1,3-2,5,1-1,2-1,3-2-1,1-2,3-3,4,1,0,3-1,4-1-1,1-2,3-3,4,1-1,2-1,3-2-1,2-2,3-3,5,1-1,3-1,4-2-1,1-2,3-3,4,1,0,2-1,3-1-1,1-2,3-3,4,1,0,3-1,4-1l-4,4c1,0,3-1,4-1-2,1-3,2-5,3h4c-1,1-3,2-4,3h4c-1,1-3,1-4,2h4c-2,1-3,2-5,3h4c-2,1-3,1-5,2,1,0,3,1,4,1Z" transform="translate(-382.79 -35.88)"></path><path class="cls-3 cumUnhqx_19" transform="translate(-2.06 939.09) rotate(-71.29)" d="M842.35,222.06A27.74,18.43 0,1,1 897.83,222.06A27.74,18.43 0,1,1 842.35,222.06"></path><path class="cls-3 cumUnhqx_20" transform="translate(-410.5 238.41) rotate(-18.71)" d="M800.4200000000001,221.28A18.43,27.74 0,1,1 837.28,221.28A18.43,27.74 0,1,1 800.4200000000001,221.28"></path><path class="cls-3 cumUnhqx_21" d="M423.61,273.12L462.15,180.94L500.69,273.12L423.61,273.12Z"></path><path class="cls-4 cumUnhqx_22" d="M466.34,261.47L462.46,271.56L458.19,261.47L458.19,219.56L466.34,219.56L466.34,261.47Z"></path><path class="cls-3 cumUnhqx_23" d="M419.38,182.68A42.5,47.35 0,1,1 504.38,182.68A42.5,47.35 0,1,1 419.38,182.68"></path><path class="cls-3 cumUnhqx_24" d="M824.92,239c-1.63-1.59,18.75,20.51,39.34.76" transform="translate(-382.79 -35.88)"></path><path class="cls-1 cumUnhqx_25" d="M662,102c-2,1-3,1-5,2,1,0,3,1,4,1-2,1-3,1-5,2h4c-2,1-3,1-5,2,1,0,3,1,4,1-2,0-4,1-6,1,1,0,3,1,4,1-2,0-3,1-5,1,1,1,3,1,4,2-2,0-3,1-5,1,1,0,3,1,4,1-2,0-4,1-6,1,1,0,3,1,4,1-2,0-3,1-5,1,1,1,2,1,3,2h-5c1,1,3,1,4,2-2,0-4-1-6-1,1,1,3,2,4,3-2,0-4-1-6-1,1,1,3,2,4,3-2,0-4-1-6-1,1,1,3,1,4,2-2,0-4-1-6-1,1,1,3,2,4,3-2-1-4-1-6-2,1,1,2,3,3,4-2-1-3-1-5-2l3,3c-2-1-3-1-5-2l3,3c-2-1-3-1-5-2,1,1,1,2,2,3-2-1-3-1-5-2l3,3c-2-1-3-2-5-3,1,1,1,3,2,4-1-1-3-2-4-3,0,1,1,3,1,4l-4-4c1,1,1,3,2,4-1-1-3-2-4-3,0,1,1,3,1,4l-4-4c0,1,1,3,1,4l-4-4c0,1,1,3,1,4-1-1-2-3-3-4v4c-1-2-2-3-3-5,0,1,1,3,1,4-1-2-2-3-3-5v5c-1-2-2-3-3-5v4c-1-2-1-3-2-5,0,1-1,3-1,4-1-2-1-3-2-5v4c-1-2-1-4-2-6,0,1-1,3-1,4,0-2-1-3-1-5-1,1-1,2-2,3v-5c-1,1-1,3-2,4v-6c-1,1-1,3-2,4v-6c-1,1-2,3-3,4,0-2,1-4,1-6l-3,3c0-2,1-3,1-5l-3,3c1-2,1-3,2-5-1,1-2,1-3,2,0-2,1-3,1-5l-3,3c1-2,1-3,2-5-1,1-2,1-3,2,1-2,1-3,2-5-1,1-2,1-3,2,1-2,1-3,2-5-1,1-2,1-3,2,1-1,1-3,2-4-1,0-2,1-3,1,1-1,2-3,3-4-1,0-3,1-4,1,1-1,2-3,3-4-1,1-3,1-4,2,1-2,3-3,4-5-1,1-3,1-4,2l4-4c-1,0-3,1-4,1l4-4c-1,0-3,1-4,1l4-4c-1,0-3,1-4,1,1-1,3-2,4-3h-4c2-1,3-2,5-3h-4c1-1,3-2,4-3h-4c2-1,3-1,5-2-1,0-3-1-4-1,2-1,3-1,5-2h-4c2-1,3-1,5-2-1,0-3-1-4-1,2-1,3-1,5-2-1,0-3-1-4-1,2,0,3-1,5-1-1,0-3-1-4-1,2,0,4-1,6-1-1-1-3-1-4-2h5c-1-1-3-1-4-2h6c-1-1-3-1-4-2h5c-1-1-3-1-4-2h6c-1-1-3-2-4-3,2,0,4,1,6,1-1-1-3-2-4-3,2,0,3,1,5,1-1-1-2-1-3-2,2,0,3,1,5,1l-3-3c2,0,3,1,5,1l-3-3c2,1,3,1,5,2l-3-3c2,0,4,1,6,1l-3-3c2,1,3,1,5,2l-3-3c2,1,3,1,5,2l-3-3c2,1,3,1,5,2-1-1-1-2-2-3,2,1,3,2,5,3-1-1-1-3-2-4,1,1,3,2,4,3-1-1-1-3-2-4,2,1,3,3,5,4-1-1-1-3-2-4,1,1,3,2,4,3,0-1-1-3-1-4l4,4c0-1-1-3-1-4,1,1,2,3,3,4,0-1-1-3-1-4,1,2,3,3,4,5,0-1-1-3-1-4,1,1,2,3,3,4V39c1,2,2,3,3,5V40c1,1,1,3,2,4,0-1,1-3,1-4,1,2,1,3,2,5V41c1,2,1,4,2,6,0-1,1-3,1-4,1,2,1,3,2,5,0-1,1-3,1-4,0,2,1,3,1,5,0-1,1-2,1-3,0,2,1,3,1,5,1-1,1-2,2-3v5c1-1,1-3,2-4v6c1-1,1-2,2-3v5c1-1,1-2,2-3v5c1-1,1-2,2-3,0,2-1,4-1,6l3-3c0,2-1,3-1,5,1-1,1-2,2-3,0,2-1,3-1,5,1-1,2-1,3-2-1,2-1,3-2,5,1-1,2-1,3-2-1,2-1,3-2,5,1-1,2-1,3-2-1,1-1,3-2,4,1,0,2-1,3-1-1,1-2,3-3,4,1,0,3-1,4-1-1,1-2,3-3,4,1,0,2-1,3-1-1,1-2,3-3,4,1,0,3-1,4-1-1,1-3,2-4,3h4c-1,1-3,2-4,3h4c-1,1-3,2-4,3h4c-2,1-3,2-5,3,1,0,3-1,4-1-1,1-3,2-4,3h4c-2,1-3,2-5,3h4c-1,1-3,2-4,3Z" transform="translate(-382.79 -35.88)"></path><path class="cls-2 cumUnhqx_26" d="M662,102c-2,1-3,1-5,2,1,0,3,1,4,1-2,1-3,1-5,2h4c-2,1-3,1-5,2,1,0,3,1,4,1-2,0-4,1-6,1,1,0,3,1,4,1-2,0-3,1-5,1,1,1,3,1,4,2-2,0-3,1-5,1,1,0,3,1,4,1-2,0-4,1-6,1,1,0,3,1,4,1-2,0-3,1-5,1,1,1,2,1,3,2h-5c1,1,3,1,4,2-2,0-4-1-6-1,1,1,3,2,4,3-2,0-4-1-6-1,1,1,3,2,4,3-2,0-4-1-6-1,1,1,3,1,4,2-2,0-4-1-6-1,1,1,3,2,4,3-2-1-4-1-6-2,1,1,2,3,3,4-2-1-3-1-5-2l3,3c-2-1-3-1-5-2l3,3c-2-1-3-1-5-2,1,1,1,2,2,3-2-1-3-1-5-2l3,3c-2-1-3-2-5-3,1,1,1,3,2,4-1-1-3-2-4-3,0,1,1,3,1,4l-4-4c1,1,1,3,2,4-1-1-3-2-4-3,0,1,1,3,1,4l-4-4c0,1,1,3,1,4l-4-4c0,1,1,3,1,4-1-1-2-3-3-4v4c-1-2-2-3-3-5,0,1,1,3,1,4-1-2-2-3-3-5v5c-1-2-2-3-3-5v4c-1-2-1-3-2-5,0,1-1,3-1,4-1-2-1-3-2-5v4c-1-2-1-4-2-6,0,1-1,3-1,4,0-2-1-3-1-5-1,1-1,2-2,3v-5c-1,1-1,3-2,4v-6c-1,1-1,3-2,4v-6c-1,1-2,3-3,4,0-2,1-4,1-6l-3,3c0-2,1-3,1-5l-3,3c1-2,1-3,2-5-1,1-2,1-3,2,0-2,1-3,1-5l-3,3c1-2,1-3,2-5-1,1-2,1-3,2,1-2,1-3,2-5-1,1-2,1-3,2,1-2,1-3,2-5-1,1-2,1-3,2,1-1,1-3,2-4-1,0-2,1-3,1,1-1,2-3,3-4-1,0-3,1-4,1,1-1,2-3,3-4-1,1-3,1-4,2,1-2,3-3,4-5-1,1-3,1-4,2l4-4c-1,0-3,1-4,1l4-4c-1,0-3,1-4,1l4-4c-1,0-3,1-4,1,1-1,3-2,4-3h-4c2-1,3-2,5-3h-4c1-1,3-2,4-3h-4c2-1,3-1,5-2-1,0-3-1-4-1,2-1,3-1,5-2h-4c2-1,3-1,5-2-1,0-3-1-4-1,2-1,3-1,5-2-1,0-3-1-4-1,2,0,3-1,5-1-1,0-3-1-4-1,2,0,4-1,6-1-1-1-3-1-4-2h5c-1-1-3-1-4-2h6c-1-1-3-1-4-2h5c-1-1-3-1-4-2h6c-1-1-3-2-4-3,2,0,4,1,6,1-1-1-3-2-4-3,2,0,3,1,5,1-1-1-2-1-3-2,2,0,3,1,5,1l-3-3c2,0,3,1,5,1l-3-3c2,1,3,1,5,2l-3-3c2,0,4,1,6,1l-3-3c2,1,3,1,5,2l-3-3c2,1,3,1,5,2l-3-3c2,1,3,1,5,2-1-1-1-2-2-3,2,1,3,2,5,3-1-1-1-3-2-4,1,1,3,2,4,3-1-1-1-3-2-4,2,1,3,3,5,4-1-1-1-3-2-4,1,1,3,2,4,3,0-1-1-3-1-4l4,4c0-1-1-3-1-4,1,1,2,3,3,4,0-1-1-3-1-4,1,2,3,3,4,5,0-1-1-3-1-4,1,1,2,3,3,4V39c1,2,2,3,3,5V40c1,1,1,3,2,4,0-1,1-3,1-4,1,2,1,3,2,5V41c1,2,1,4,2,6,0-1,1-3,1-4,1,2,1,3,2,5,0-1,1-3,1-4,0,2,1,3,1,5,0-1,1-2,1-3,0,2,1,3,1,5,1-1,1-2,2-3v5c1-1,1-3,2-4v6c1-1,1-2,2-3v5c1-1,1-2,2-3v5c1-1,1-2,2-3,0,2-1,4-1,6l3-3c0,2-1,3-1,5,1-1,1-2,2-3,0,2-1,3-1,5,1-1,2-1,3-2-1,2-1,3-2,5,1-1,2-1,3-2-1,2-1,3-2,5,1-1,2-1,3-2-1,1-1,3-2,4,1,0,2-1,3-1-1,1-2,3-3,4,1,0,3-1,4-1-1,1-2,3-3,4,1,0,2-1,3-1-1,1-2,3-3,4,1,0,3-1,4-1-1,1-3,2-4,3h4c-1,1-3,2-4,3h4c-1,1-3,2-4,3h4c-2,1-3,2-5,3,1,0,3-1,4-1-1,1-3,2-4,3h4c-2,1-3,2-5,3h4c-1,1-3,2-4,3Z" transform="translate(-382.79 -35.88)"></path><path class="cls-3 cumUnhqx_27" transform="translate(-39.44 641.15) rotate(-71.29)" d="M614.92,99.15A28.76,19.11 0,1,1 672.4399999999999,99.15A28.76,19.11 0,1,1 614.92,99.15"></path><path class="cls-3 cumUnhqx_28" transform="matrix(0.95, -0.32, 0.32, 0.95, -383.13, 158.71)" d="M571.46,98.34A19.11,28.76 0,1,1 609.6800000000001,98.34A19.11,28.76 0,1,1 571.46,98.34"></path><path class="cls-3 cumUnhqx_29" d="M194.87,153.4L234.83,57.84L274.78,153.4L194.87,153.4Z"></path><path class="cls-4 cumUnhqx_30" d="M239.17,141.33L235.15,151.79L230.72,141.33L230.72,97.87L239.17,97.87L239.17,141.33Z"></path><path class="cls-3 cumUnhqx_31" d="M190.48,59.65A44.06,49.09 0,1,1 278.6,59.65A44.06,49.09 0,1,1 190.48,59.65"></path><path class="cls-3 cumUnhqx_32" d="M596.87,116.76c-1.69-1.65,19.43,21.26,40.78.79" transform="translate(-382.79 -35.88)"></path><g id="Bildmaterial_6" data-name="Bildmaterial 6"><path class="cls-5 cumUnhqx_33" d="M419.41,536.03L414.07,536.03L72.73,536.03L182.14,402.83L414.07,402.83L414.07,443.99"></path><text class="cls-6" transform="translate(83.29 523.69) scale(1.03 1)"><tspan class="cls-7">K</tspan><tspan x="89.02" y="0">a</tspan></text><text class="cls-8" transform="translate(263.38 523.69) scale(1.03 1)"><tspan class="cls-9">s</tspan><tspan x="68.04" y="0">a</tspan></text><text class="cls-10" transform="translate(124 587.47) scale(1.03 1)">Solutions</text></g><path class="cls-11 cumUnhqx_34" d="M289.71,382.62L347.71,245.62"></path><path class="cls-11 cumUnhqx_35" d="M286.71,382.62L234.71,161.62"></path><path class="cls-11 cumUnhqx_36" d="M282.71,382.62L133.71,219.62"></path><path class="cls-11 cumUnhqx_37" d="M295.71,379.62L462.71,278.62"></path><path class="cls-12 cumUnhqx_38" d="M276.21,380.12A11,11 0,1,1 298.21,380.12A11,11 0,1,1 276.21,380.12"></path><path class="cls-1 cumUnhqx_39" d="M1006,498.82V694.19h91.63V498.82Zm29,155.79h-10.69V627.66H1035Zm0-42.95h-10.69V584.72H1035Zm0-42.95h-10.69V541.77H1035Zm42,85.9h-10.69V627.66H1077Zm0-42.95h-10.69V584.72H1077Zm0-42.95h-10.69V541.77H1077Z" transform="translate(-382.79 -35.88)"></path><path class="cls-1 cumUnhqx_40" d="M1100.68,509.63V705h91.63V509.63Zm29,155.79H1119V638.47h10.69Zm0-42.95H1119V595.52h10.69Zm0-42.95H1119V552.58h10.69Zm42,85.9H1161V638.47h10.69Zm0-42.95H1161V595.52h10.69Zm0-42.95H1161V552.58h10.69Z" transform="translate(-382.79 -35.88)"></path><path class="cls-13 cumUnhqx_41" d="M430.21,481.12L617.21,531.12"></path><text class="cls-14" transform="translate(0 301.33)"><tspan class="cls-12">IT </tspan><tspan class="cls-15" x="40.6" y="0">T</tspan><tspan class="cls-12" x="59.01" y="0">ale</tspan><tspan class="cls-16" x="109.89" y="0">n</tspan><tspan class="cls-12" x="131.24" y="0">te</tspan><tspan x="167.04" y="0"> </tspan></text><text class="cls-14" transform="translate(617 429.33)"><tspan class="cls-17">I</tspan><tspan class="cls-12" x="10.93" y="0">hr </tspan><tspan class="cls-16" x="55.39" y="0">Un</tspan><tspan class="cls-18" x="101.88" y="0">ternehmen</tspan><tspan x="291.52" y="0"> </tspan></text><style data-made-with="vivus-instant">.cumUnhqx_0{stroke-dasharray:1026 1028;stroke-dashoffset:1027;}.start .cumUnhqx_0{animation:cumUnhqx_draw_0 9200ms ease-in 0ms infinite,cumUnhqx_fade 9200ms linear 0ms infinite;}.cumUnhqx_1{stroke-dasharray:1005 1007;stroke-dashoffset:1006;}.start .cumUnhqx_1{animation:cumUnhqx_draw_1 9200ms ease-in 0ms infinite,cumUnhqx_fade 9200ms linear 0ms infinite;}.cumUnhqx_2{stroke-dasharray:1005 1007;stroke-dashoffset:1006;}.start .cumUnhqx_2{animation:cumUnhqx_draw_2 9200ms ease-in 0ms infinite,cumUnhqx_fade 9200ms linear 0ms infinite;}.cumUnhqx_3{stroke-dasharray:143 145;stroke-dashoffset:144;}.start .cumUnhqx_3{animation:cumUnhqx_draw_3 9200ms ease-in 0ms infinite,cumUnhqx_fade 9200ms linear 0ms infinite;}.cumUnhqx_4{stroke-dasharray:143 145;stroke-dashoffset:144;}.start .cumUnhqx_4{animation:cumUnhqx_draw_4 9200ms ease-in 0ms infinite,cumUnhqx_fade 9200ms linear 0ms infinite;}.cumUnhqx_5{stroke-dasharray:270 272;stroke-dashoffset:271;}.start .cumUnhqx_5{animation:cumUnhqx_draw_5 9200ms ease-in 0ms infinite,cumUnhqx_fade 9200ms linear 0ms infinite;}.cumUnhqx_6{stroke-dasharray:111 113;stroke-dashoffset:112;}.start .cumUnhqx_6{animation:cumUnhqx_draw_6 9200ms ease-in 0ms infinite,cumUnhqx_fade 9200ms linear 0ms infinite;}.cumUnhqx_7{stroke-dasharray:275 277;stroke-dashoffset:276;}.start .cumUnhqx_7{animation:cumUnhqx_draw_7 9200ms ease-in 0ms infinite,cumUnhqx_fade 9200ms linear 0ms infinite;}.cumUnhqx_8{stroke-dasharray:44 46;stroke-dashoffset:45;}.start .cumUnhqx_8{animation:cumUnhqx_draw_8 9200ms ease-in 0ms infinite,cumUnhqx_fade 9200ms linear 0ms infinite;}.cumUnhqx_9{stroke-dasharray:1017 1019;stroke-dashoffset:1018;}.start .cumUnhqx_9{animation:cumUnhqx_draw_9 9200ms ease-in 0ms infinite,cumUnhqx_fade 9200ms linear 0ms infinite;}.cumUnhqx_10{stroke-dasharray:1017 1019;stroke-dashoffset:1018;}.start .cumUnhqx_10{animation:cumUnhqx_draw_10 9200ms ease-in 0ms infinite,cumUnhqx_fade 9200ms linear 0ms infinite;}.cumUnhqx_11{stroke-dasharray:152 154;stroke-dashoffset:153;}.start .cumUnhqx_11{animation:cumUnhqx_draw_11 9200ms ease-in 0ms infinite,cumUnhqx_fade 9200ms linear 0ms infinite;}.cumUnhqx_12{stroke-dasharray:152 154;stroke-dashoffset:153;}.start .cumUnhqx_12{animation:cumUnhqx_draw_12 9200ms ease-in 0ms infinite,cumUnhqx_fade 9200ms linear 0ms infinite;}.cumUnhqx_13{stroke-dasharray:288 290;stroke-dashoffset:289;}.start .cumUnhqx_13{animation:cumUnhqx_draw_13 9200ms ease-in 0ms infinite,cumUnhqx_fade 9200ms linear 0ms infinite;}.cumUnhqx_14{stroke-dasharray:118 120;stroke-dashoffset:119;}.start .cumUnhqx_14{animation:cumUnhqx_draw_14 9200ms ease-in 0ms infinite,cumUnhqx_fade 9200ms linear 0ms infinite;}.cumUnhqx_15{stroke-dasharray:293 295;stroke-dashoffset:294;}.start .cumUnhqx_15{animation:cumUnhqx_draw_15 9200ms ease-in 0ms infinite,cumUnhqx_fade 9200ms linear 0ms infinite;}.cumUnhqx_16{stroke-dasharray:46 48;stroke-dashoffset:47;}.start .cumUnhqx_16{animation:cumUnhqx_draw_16 9200ms ease-in 0ms infinite,cumUnhqx_fade 9200ms linear 0ms infinite;}.cumUnhqx_17{stroke-dasharray:1025 1027;stroke-dashoffset:1026;}.start .cumUnhqx_17{animation:cumUnhqx_draw_17 9200ms ease-in 0ms infinite,cumUnhqx_fade 9200ms linear 0ms infinite;}.cumUnhqx_18{stroke-dasharray:1025 1027;stroke-dashoffset:1026;}.start .cumUnhqx_18{animation:cumUnhqx_draw_18 9200ms ease-in 0ms infinite,cumUnhqx_fade 9200ms linear 0ms infinite;}.cumUnhqx_19{stroke-dasharray:147 149;stroke-dashoffset:148;}.start .cumUnhqx_19{animation:cumUnhqx_draw_19 9200ms ease-in 0ms infinite,cumUnhqx_fade 9200ms linear 0ms infinite;}.cumUnhqx_20{stroke-dasharray:147 149;stroke-dashoffset:148;}.start .cumUnhqx_20{animation:cumUnhqx_draw_20 9200ms ease-in 0ms infinite,cumUnhqx_fade 9200ms linear 0ms infinite;}.cumUnhqx_21{stroke-dasharray:277 279;stroke-dashoffset:278;}.start .cumUnhqx_21{animation:cumUnhqx_draw_21 9200ms ease-in 0ms infinite,cumUnhqx_fade 9200ms linear 0ms infinite;}.cumUnhqx_22{stroke-dasharray:114 116;stroke-dashoffset:115;}.start .cumUnhqx_22{animation:cumUnhqx_draw_22 9200ms ease-in 0ms infinite,cumUnhqx_fade 9200ms linear 0ms infinite;}.cumUnhqx_23{stroke-dasharray:283 285;stroke-dashoffset:284;}.start .cumUnhqx_23{animation:cumUnhqx_draw_23 9200ms ease-in 0ms infinite,cumUnhqx_fade 9200ms linear 0ms infinite;}.cumUnhqx_24{stroke-dasharray:45 47;stroke-dashoffset:46;}.start .cumUnhqx_24{animation:cumUnhqx_draw_24 9200ms ease-in 0ms infinite,cumUnhqx_fade 9200ms linear 0ms infinite;}.cumUnhqx_25{stroke-dasharray:1017 1019;stroke-dashoffset:1018;}.start .cumUnhqx_25{animation:cumUnhqx_draw_25 9200ms ease-in 0ms infinite,cumUnhqx_fade 9200ms linear 0ms infinite;}.cumUnhqx_26{stroke-dasharray:1017 1019;stroke-dashoffset:1018;}.start .cumUnhqx_26{animation:cumUnhqx_draw_26 9200ms ease-in 0ms infinite,cumUnhqx_fade 9200ms linear 0ms infinite;}.cumUnhqx_27{stroke-dasharray:152 154;stroke-dashoffset:153;}.start .cumUnhqx_27{animation:cumUnhqx_draw_27 9200ms ease-in 0ms infinite,cumUnhqx_fade 9200ms linear 0ms infinite;}.cumUnhqx_28{stroke-dasharray:153 155;stroke-dashoffset:154;}.start .cumUnhqx_28{animation:cumUnhqx_draw_28 9200ms ease-in 0ms infinite,cumUnhqx_fade 9200ms linear 0ms infinite;}.cumUnhqx_29{stroke-dasharray:288 290;stroke-dashoffset:289;}.start .cumUnhqx_29{animation:cumUnhqx_draw_29 9200ms ease-in 0ms infinite,cumUnhqx_fade 9200ms linear 0ms infinite;}.cumUnhqx_30{stroke-dasharray:118 120;stroke-dashoffset:119;}.start .cumUnhqx_30{animation:cumUnhqx_draw_30 9200ms ease-in 0ms infinite,cumUnhqx_fade 9200ms linear 0ms infinite;}.cumUnhqx_31{stroke-dasharray:293 295;stroke-dashoffset:294;}.start .cumUnhqx_31{animation:cumUnhqx_draw_31 9200ms ease-in 0ms infinite,cumUnhqx_fade 9200ms linear 0ms infinite;}.cumUnhqx_32{stroke-dasharray:46 48;stroke-dashoffset:47;}.start .cumUnhqx_32{animation:cumUnhqx_draw_32 9200ms ease-in 0ms infinite,cumUnhqx_fade 9200ms linear 0ms infinite;}.cumUnhqx_33{stroke-dasharray:793 795;stroke-dashoffset:794;}.start .cumUnhqx_33{animation:cumUnhqx_draw_33 9200ms ease-in 0ms infinite,cumUnhqx_fade 9200ms linear 0ms infinite;}.cumUnhqx_34{stroke-dasharray:149 151;stroke-dashoffset:150;}.start .cumUnhqx_34{animation:cumUnhqx_draw_34 9200ms ease-in 0ms infinite,cumUnhqx_fade 9200ms linear 0ms infinite;}.cumUnhqx_35{stroke-dasharray:228 230;stroke-dashoffset:229;}.start .cumUnhqx_35{animation:cumUnhqx_draw_35 9200ms ease-in 0ms infinite,cumUnhqx_fade 9200ms linear 0ms infinite;}.cumUnhqx_36{stroke-dasharray:221 223;stroke-dashoffset:222;}.start .cumUnhqx_36{animation:cumUnhqx_draw_36 9200ms ease-in 0ms infinite,cumUnhqx_fade 9200ms linear 0ms infinite;}.cumUnhqx_37{stroke-dasharray:196 198;stroke-dashoffset:197;}.start .cumUnhqx_37{animation:cumUnhqx_draw_37 9200ms ease-in 0ms infinite,cumUnhqx_fade 9200ms linear 0ms infinite;}.cumUnhqx_38{stroke-dasharray:70 72;stroke-dashoffset:71;}.start .cumUnhqx_38{animation:cumUnhqx_draw_38 9200ms ease-in 0ms infinite,cumUnhqx_fade 9200ms linear 0ms infinite;}.cumUnhqx_39{stroke-dasharray:1026 1028;stroke-dashoffset:1027;}.start .cumUnhqx_39{animation:cumUnhqx_draw_39 9200ms ease-in 0ms infinite,cumUnhqx_fade 9200ms linear 0ms infinite;}.cumUnhqx_40{stroke-dasharray:1026 1028;stroke-dashoffset:1027;}.start .cumUnhqx_40{animation:cumUnhqx_draw_40 9200ms ease-in 0ms infinite,cumUnhqx_fade 9200ms linear 0ms infinite;}.cumUnhqx_41{stroke-dasharray:194 196;stroke-dashoffset:195;}.start .cumUnhqx_41{animation:cumUnhqx_draw_41 9200ms ease-in 0ms infinite,cumUnhqx_fade 9200ms linear 0ms infinite;}@keyframes cumUnhqx_draw{100%{stroke-dashoffset:0;}}@keyframes cumUnhqx_fade{0%{stroke-opacity:1;}95.65217391304348%{stroke-opacity:1;}100%{stroke-opacity:0;}}@keyframes cumUnhqx_draw_0{8.695652173913043%{stroke-dashoffset: 1027}44.927536231884055%{ stroke-dashoffset: 0;}100%{ stroke-dashoffset: 0;}}@keyframes cumUnhqx_draw_1{9.137504418522447%{stroke-dashoffset: 1006}45.36938847649346%{ stroke-dashoffset: 0;}100%{ stroke-dashoffset: 0;}}@keyframes cumUnhqx_draw_2{9.579356663131849%{stroke-dashoffset: 1006}45.811240721102855%{ stroke-dashoffset: 0;}100%{ stroke-dashoffset: 0;}}@keyframes cumUnhqx_draw_3{10.02120890774125%{stroke-dashoffset: 144}46.25309296571226%{ stroke-dashoffset: 0;}100%{ stroke-dashoffset: 0;}}@keyframes cumUnhqx_draw_4{10.463061152350654%{stroke-dashoffset: 144}46.69494521032167%{ stroke-dashoffset: 0;}100%{ stroke-dashoffset: 0;}}@keyframes cumUnhqx_draw_5{10.904913396960056%{stroke-dashoffset: 271}47.13679745493107%{ stroke-dashoffset: 0;}100%{ stroke-dashoffset: 0;}}@keyframes cumUnhqx_draw_6{11.34676564156946%{stroke-dashoffset: 112}47.57864969954047%{ stroke-dashoffset: 0;}100%{ stroke-dashoffset: 0;}}@keyframes cumUnhqx_draw_7{11.78861788617886%{stroke-dashoffset: 276}48.02050194414988%{ stroke-dashoffset: 0;}100%{ stroke-dashoffset: 0;}}@keyframes cumUnhqx_draw_8{12.230470130788266%{stroke-dashoffset: 45}48.46235418875927%{ stroke-dashoffset: 0;}100%{ stroke-dashoffset: 0;}}@keyframes cumUnhqx_draw_9{12.672322375397668%{stroke-dashoffset: 1018}48.90420643336868%{ stroke-dashoffset: 0;}100%{ stroke-dashoffset: 0;}}@keyframes cumUnhqx_draw_10{13.114174620007068%{stroke-dashoffset: 1018}49.346058677978085%{ stroke-dashoffset: 0;}100%{ stroke-dashoffset: 0;}}@keyframes cumUnhqx_draw_11{13.556026864616474%{stroke-dashoffset: 153}49.78791092258748%{ stroke-dashoffset: 0;}100%{ stroke-dashoffset: 0;}}@keyframes cumUnhqx_draw_12{13.997879109225877%{stroke-dashoffset: 153}50.229763167196886%{ stroke-dashoffset: 0;}100%{ stroke-dashoffset: 0;}}@keyframes cumUnhqx_draw_13{14.439731353835278%{stroke-dashoffset: 289}50.67161541180629%{ stroke-dashoffset: 0;}100%{ stroke-dashoffset: 0;}}@keyframes cumUnhqx_draw_14{14.881583598444681%{stroke-dashoffset: 119}51.11346765641569%{ stroke-dashoffset: 0;}100%{ stroke-dashoffset: 0;}}@keyframes cumUnhqx_draw_15{15.323435843054083%{stroke-dashoffset: 294}51.5553199010251%{ stroke-dashoffset: 0;}100%{ stroke-dashoffset: 0;}}@keyframes cumUnhqx_draw_16{15.765288087663487%{stroke-dashoffset: 47}51.99717214563451%{ stroke-dashoffset: 0;}100%{ stroke-dashoffset: 0;}}@keyframes cumUnhqx_draw_17{16.20714033227289%{stroke-dashoffset: 1026}52.439024390243894%{ stroke-dashoffset: 0;}100%{ stroke-dashoffset: 0;}}@keyframes cumUnhqx_draw_18{16.64899257688229%{stroke-dashoffset: 1026}52.8808766348533%{ stroke-dashoffset: 0;}100%{ stroke-dashoffset: 0;}}@keyframes cumUnhqx_draw_19{17.090844821491693%{stroke-dashoffset: 148}53.32272887946271%{ stroke-dashoffset: 0;}100%{ stroke-dashoffset: 0;}}@keyframes cumUnhqx_draw_20{17.532697066101097%{stroke-dashoffset: 148}53.76458112407211%{ stroke-dashoffset: 0;}100%{ stroke-dashoffset: 0;}}@keyframes cumUnhqx_draw_21{17.9745493107105%{stroke-dashoffset: 278}54.206433368681516%{ stroke-dashoffset: 0;}100%{ stroke-dashoffset: 0;}}@keyframes cumUnhqx_draw_22{18.416401555319904%{stroke-dashoffset: 115}54.648285613290916%{ stroke-dashoffset: 0;}100%{ stroke-dashoffset: 0;}}@keyframes cumUnhqx_draw_23{18.858253799929305%{stroke-dashoffset: 284}55.09013785790031%{ stroke-dashoffset: 0;}100%{ stroke-dashoffset: 0;}}@keyframes cumUnhqx_draw_24{19.300106044538705%{stroke-dashoffset: 46}55.531990102509724%{ stroke-dashoffset: 0;}100%{ stroke-dashoffset: 0;}}@keyframes cumUnhqx_draw_25{19.741958289148112%{stroke-dashoffset: 1018}55.97384234711913%{ stroke-dashoffset: 0;}100%{ stroke-dashoffset: 0;}}@keyframes cumUnhqx_draw_26{20.183810533757512%{stroke-dashoffset: 1018}56.415694591728524%{ stroke-dashoffset: 0;}100%{ stroke-dashoffset: 0;}}@keyframes cumUnhqx_draw_27{20.625662778366916%{stroke-dashoffset: 153}56.857546836337924%{ stroke-dashoffset: 0;}100%{ stroke-dashoffset: 0;}}@keyframes cumUnhqx_draw_28{21.06751502297632%{stroke-dashoffset: 154}57.29939908094733%{ stroke-dashoffset: 0;}100%{ stroke-dashoffset: 0;}}@keyframes cumUnhqx_draw_29{21.509367267585723%{stroke-dashoffset: 289}57.74125132555673%{ stroke-dashoffset: 0;}100%{ stroke-dashoffset: 0;}}@keyframes cumUnhqx_draw_30{21.951219512195124%{stroke-dashoffset: 119}58.18310357016614%{ stroke-dashoffset: 0;}100%{ stroke-dashoffset: 0;}}@keyframes cumUnhqx_draw_31{22.393071756804524%{stroke-dashoffset: 294}58.62495581477554%{ stroke-dashoffset: 0;}100%{ stroke-dashoffset: 0;}}@keyframes cumUnhqx_draw_32{22.834924001413928%{stroke-dashoffset: 47}59.06680805938495%{ stroke-dashoffset: 0;}100%{ stroke-dashoffset: 0;}}@keyframes cumUnhqx_draw_33{23.276776246023335%{stroke-dashoffset: 794}59.50866030399434%{ stroke-dashoffset: 0;}100%{ stroke-dashoffset: 0;}}@keyframes cumUnhqx_draw_34{23.71862849063273%{stroke-dashoffset: 150}59.95051254860374%{ stroke-dashoffset: 0;}100%{ stroke-dashoffset: 0;}}@keyframes cumUnhqx_draw_35{24.16048073524214%{stroke-dashoffset: 229}60.39236479321315%{ stroke-dashoffset: 0;}100%{ stroke-dashoffset: 0;}}@keyframes cumUnhqx_draw_36{24.60233297985154%{stroke-dashoffset: 222}60.83421703782255%{ stroke-dashoffset: 0;}100%{ stroke-dashoffset: 0;}}@keyframes cumUnhqx_draw_37{25.04418522446094%{stroke-dashoffset: 197}61.276069282431955%{ stroke-dashoffset: 0;}100%{ stroke-dashoffset: 0;}}@keyframes cumUnhqx_draw_38{25.486037469070343%{stroke-dashoffset: 71}61.717921527041355%{ stroke-dashoffset: 0;}100%{ stroke-dashoffset: 0;}}@keyframes cumUnhqx_draw_39{25.927889713679747%{stroke-dashoffset: 1027}62.15977377165075%{ stroke-dashoffset: 0;}100%{ stroke-dashoffset: 0;}}@keyframes cumUnhqx_draw_40{26.36974195828915%{stroke-dashoffset: 1027}62.601626016260155%{ stroke-dashoffset: 0;}100%{ stroke-dashoffset: 0;}}@keyframes cumUnhqx_draw_41{26.811594202898554%{stroke-dashoffset: 195}63.04347826086957%{ stroke-dashoffset: 0;}100%{ stroke-dashoffset: 0;}}</style></svg>